<svg width="19" height="19" viewBox="0 0 19 19" fill="none" xmlns="http://www.w3.org/2000/svg">
<path d="M16.2339 0.233887C16.7643 0.233887 17.273 0.4446 17.6481 0.819673C18.0232 1.19475 18.2339 1.70345 18.2339 2.23389V16.2339C18.2339 16.7643 18.0232 17.273 17.6481 17.6481C17.273 18.0232 16.7643 18.2339 16.2339 18.2339H2.23389C1.70345 18.2339 1.19475 18.0232 0.819673 17.6481C0.4446 17.273 0.233887 16.7643 0.233887 16.2339V2.23389C0.233887 1.70345 0.4446 1.19475 0.819673 0.819673C1.19475 0.4446 1.70345 0.233887 2.23389 0.233887H16.2339ZM15.7339 15.7339V10.4339C15.7339 9.56928 15.3904 8.74009 14.7791 8.12872C14.1677 7.51735 13.3385 7.17389 12.4739 7.17389C11.6239 7.17389 10.6339 7.69389 10.1539 8.47389V7.36389H7.36389V15.7339H10.1539V10.8039C10.1539 10.0339 10.7739 9.40389 11.5439 9.40389C11.9152 9.40389 12.2713 9.55139 12.5338 9.81394C12.7964 10.0765 12.9439 10.4326 12.9439 10.8039V15.7339H15.7339ZM4.11389 5.79389C4.55945 5.79389 4.98677 5.61689 5.30183 5.30183C5.61689 4.98677 5.79389 4.55945 5.79389 4.11389C5.79389 3.18389 5.04389 2.42389 4.11389 2.42389C3.66567 2.42389 3.23581 2.60194 2.91888 2.91888C2.60194 3.23581 2.42389 3.66567 2.42389 4.11389C2.42389 5.04389 3.18389 5.79389 4.11389 5.79389ZM5.50389 15.7339V7.36389H2.73389V15.7339H5.50389Z" fill="#7C7C7C"/>
</svg>
