<svg width="30" height="29" viewBox="0 0 30 29" fill="none" xmlns="http://www.w3.org/2000/svg">
<g id="ri:youtube-fill">
<path id="Vector" d="M15.708 4.8252C16.352 4.82881 17.9635 4.84449 19.6762 4.91324L20.2841 4.93978C22.0077 5.02059 23.7301 5.16051 24.5853 5.39812C25.7251 5.71896 26.6201 6.65253 26.9228 7.83698C27.4053 9.71859 27.4656 13.3877 27.4728 14.2767L27.474 14.46V14.6699C27.4656 15.5588 27.4053 19.2292 26.9228 21.1096C26.6165 22.2976 25.7203 23.2324 24.5853 23.5484C23.7301 23.786 22.0077 23.9259 20.2841 24.0068L19.6762 24.0345C17.9635 24.102 16.352 24.1189 15.708 24.1213L15.4245 24.1225H15.1169C13.754 24.1141 8.05366 24.0526 6.2396 23.5484C5.10098 23.2276 4.20481 22.294 3.90206 21.1096C3.4196 19.228 3.35929 15.5588 3.35205 14.6699V14.2767C3.35929 13.3877 3.4196 9.71738 3.90206 7.83698C4.20842 6.64891 5.1046 5.71413 6.2408 5.39933C8.05366 4.89395 13.7552 4.83243 15.1181 4.8252H15.708ZM13.0001 10.2529V18.696L20.2371 14.4745L13.0001 10.2529Z" fill="#7C7C7C"/>
</g>
</svg>
