<svg width="104" height="103" viewBox="0 0 104 103" fill="none" xmlns="http://www.w3.org/2000/svg">
<path d="M24.426 8.901C24.9724 9.16371 25.4334 9.57541 25.7561 10.0887C26.0788 10.6019 26.25 11.1959 26.2499 11.8022C26.2499 15.3642 27.5889 17.4157 29.267 19.9134L29.3914 20.0937C30.8163 22.2137 32.6874 24.9905 32.6874 28.9688C32.6874 33.0287 30.6403 36.608 27.5203 38.7324C28.34 39.419 29.0653 40.2645 29.6918 41.2773C31.7347 44.5819 32.6874 49.6332 32.6874 56.8861C32.6874 64.2335 31.7003 73.0571 30.091 80.104C29.2927 83.606 28.3013 86.8377 27.1211 89.2625C26.5639 90.4689 25.8259 91.5833 24.9324 92.567C24.0483 93.4726 22.6878 94.4382 20.8853 94.4382C19.0828 94.4382 17.7224 93.4726 16.8426 92.567C15.9465 91.5853 15.2082 90.4705 14.6538 89.2625C13.4693 86.8334 12.478 83.606 11.6797 80.0997C10.0057 72.4724 9.1355 64.6906 9.08326 56.8818C9.08326 49.6289 10.036 44.5819 12.0788 41.2773C12.6616 40.3181 13.3949 39.4588 14.2504 38.7324C12.6572 37.6507 11.3533 36.1953 10.4525 34.4933C9.55176 32.7912 9.08164 30.8945 9.08326 28.9688C9.08326 27.3895 9.08326 24.6729 10.727 21.1666C12.3363 17.7332 15.3963 13.7892 21.0184 9.28725C21.4922 8.90822 22.0635 8.67085 22.6664 8.60251C23.2694 8.53417 23.8793 8.63764 24.426 8.901ZM15.5208 28.9645C15.5208 30.3873 16.086 31.7561 17.092 32.7622C18.0981 33.7682 19.4626 34.3334 20.8853 34.3334C22.3081 34.3334 23.6726 33.7682 24.6787 32.7622C25.6847 31.7561 26.2499 30.3916 26.2499 28.9688C26.2499 27.0848 25.456 25.7801 23.9238 23.5012L23.8723 23.424C22.8895 21.9648 21.7265 20.2353 20.9025 18.0165C18.5721 20.3855 17.2846 22.3511 16.5593 23.8961C15.5208 26.1106 15.5208 27.6899 15.5208 28.9645ZM17.555 44.6592C16.4907 46.3844 15.5208 49.9207 15.5208 56.8861C15.5208 63.7571 16.4563 72.1001 17.9541 78.6706C18.7095 81.9752 19.5678 84.6575 20.439 86.4428C20.5978 86.7733 20.748 87.048 20.8853 87.2797C21.0227 87.048 21.1729 86.7733 21.3317 86.4428C22.2029 84.6575 23.0612 81.9709 23.8165 78.6706C25.3186 72.1044 26.2499 63.7614 26.2499 56.8861C26.2499 49.9207 25.28 46.3844 24.2157 44.6592C23.8947 44.0784 23.4095 43.6051 22.8209 43.2987C22.2114 43.0333 21.5495 42.91 20.8853 42.9382C20.027 42.9382 19.4133 43.0712 18.9498 43.2987C18.3612 43.6051 17.876 44.0784 17.555 44.6592ZM43.4166 64.0232C41.1429 63.6418 38.9312 62.9546 36.8418 61.9803C36.9674 59.5462 37.0031 57.1083 36.949 54.6716C38.8846 55.972 41.069 56.929 43.4166 57.4612V45.0626C43.4166 43.3552 44.0948 41.7178 45.3021 40.5106C46.5094 39.3033 48.1468 38.6251 49.8541 38.6251H67.0208C67.0206 35.0231 66.013 31.4929 64.1119 28.4334C62.2109 25.3739 59.492 22.907 56.2626 21.3115C53.0332 19.716 49.422 19.0555 45.8369 19.4045C42.2519 19.7535 38.8358 21.0982 35.9748 23.2867C35.1165 20.9134 33.8934 19.098 33.0436 17.8362L32.872 17.5787C36.7278 14.8606 41.2563 13.254 45.9631 12.9343C50.6699 12.6145 55.3741 13.594 59.5621 15.7657C63.7502 17.9375 67.2611 21.218 69.7117 25.2492C72.1622 29.2805 73.4583 33.9074 73.4583 38.6251H88.4791C90.1864 38.6251 91.8238 39.3033 93.0311 40.5106C94.2384 41.7178 94.9166 43.3552 94.9166 45.0626V83.6876C94.9166 85.3949 94.2384 87.0323 93.0311 88.2396C91.8238 89.4468 90.1864 90.1251 88.4791 90.1251H49.8541C48.1468 90.1251 46.5094 89.4468 45.3021 88.2396C44.0948 87.0323 43.4166 85.3949 43.4166 83.6876V64.0189V64.0232ZM49.8541 64.2935V83.6919H88.4791V45.0669H72.6428C71.3057 50.2384 68.3945 54.8666 64.3118 58.3111C60.2292 61.7556 55.1769 63.8462 49.8541 64.2935ZM65.9221 45.0669H49.8541V57.826C53.4599 57.4217 56.8792 56.0107 59.7207 53.7543C62.5622 51.4979 64.7113 48.4873 65.9221 45.0669Z" fill="#B9100B"/>
</svg>
