<svg width="100" height="99" viewBox="0 0 100 99" fill="none" xmlns="http://www.w3.org/2000/svg">
<path d="M77.6374 50.7376L53.7124 46.2001L45.6686 23.1001L37.8311 25.7813L45.8749 48.6751L29.7874 67.2376L35.9749 72.6001L52.0624 54.0376L75.9874 58.5751L77.6374 50.7376Z" fill="#B9100B" fill-opacity="0.5"/>
<path d="M50 39.1875C44.225 39.1875 39.6875 43.725 39.6875 49.5C39.6875 55.275 44.225 59.8125 50 59.8125C55.775 59.8125 60.3125 55.275 60.3125 49.5C60.3125 43.725 55.775 39.1875 50 39.1875ZM50 53.625C47.7312 53.625 45.875 51.7688 45.875 49.5C45.875 47.2312 47.7312 45.375 50 45.375C52.2688 45.375 54.125 47.2312 54.125 49.5C54.125 51.7688 52.2688 53.625 50 53.625Z" fill="#B9100B"/>
<path d="M84.4439 55.6875C84.8564 53.625 85.0627 51.5625 85.0627 49.5C85.0627 47.4375 84.8564 45.375 84.4439 43.3125L91.2502 38.3625C92.0752 37.7438 92.4877 36.5063 91.8689 35.475L83.0002 20.2125C82.3814 19.1813 81.3502 18.7687 80.3189 19.3875L72.6877 22.6875C69.5939 20.0063 65.8814 17.9438 61.9627 16.5L61.1377 8.04375C60.9314 7.0125 60.1064 6.1875 59.0752 6.1875H41.3377C40.3064 6.1875 39.2752 7.0125 39.2752 8.04375L38.0377 16.5C34.1189 17.9438 30.4064 20.0063 27.3127 22.6875L19.6814 19.1813C18.6502 18.7688 17.4127 19.1813 17.0002 20.2125L8.13141 35.475C7.51266 36.5063 7.92516 37.7438 8.75016 38.3625L15.5564 43.3125C15.1439 45.375 14.9377 47.4375 14.9377 49.5C14.9377 51.5625 15.1439 53.625 15.5564 55.6875L8.75016 60.6375C7.92516 61.2562 7.51266 62.4937 8.13141 63.525L17.0002 78.7875C17.6189 79.8187 18.6502 80.2312 19.6814 79.6125L27.3127 76.3125C30.4064 78.9938 34.1189 81.0563 38.0377 82.5L38.8627 90.9562C39.0689 91.9875 39.8939 92.8125 40.9252 92.8125H58.6627C59.6939 92.8125 60.7252 91.9875 60.7252 90.9562L61.5502 82.5C65.4689 81.0563 69.1814 78.9938 72.2752 76.3125L79.9064 79.8187C80.9377 80.2313 82.1752 79.8187 82.5877 78.9938L91.4564 63.7313C92.0752 62.7 91.6627 61.4625 90.8377 60.8438L84.4439 55.6875ZM50.0002 72.1875C37.4189 72.1875 27.3127 62.0812 27.3127 49.5C27.3127 36.9188 37.4189 26.8125 50.0002 26.8125C62.5814 26.8125 72.6877 36.9188 72.6877 49.5C72.6877 62.0812 62.5814 72.1875 50.0002 72.1875Z" fill="#B9100B"/>
</svg>
