<svg width="120" height="119" viewBox="0 0 120 119" fill="none" xmlns="http://www.w3.org/2000/svg">
<path d="M41.8176 67.4335L39.8342 62.8867L30.7456 66.8583L32.7289 71.4002C35.0448 76.7064 38.8584 81.2218 43.7023 84.3929C48.5463 87.564 54.2102 89.2531 59.9998 89.2531C65.7894 89.2531 71.4533 87.564 76.2972 84.3929C81.1411 81.2218 84.9547 76.7064 87.2706 71.4002L89.2589 66.8583L80.1703 62.8917L78.1869 67.4335C76.6436 70.9729 74.101 73.9849 70.8708 76.1003C67.6407 78.2157 63.8634 79.3424 60.0023 79.3424C56.1411 79.3424 52.3638 78.2157 49.1337 76.1003C45.9035 73.9849 43.3609 70.9729 41.8176 67.4335Z" fill="#B9100B"/>
<path d="M59.9999 4.9585C29.878 4.9585 5.45825 29.3783 5.45825 59.5002C5.45825 72.6992 10.1488 84.8075 17.9533 94.2383L6.94575 114.042H59.9999C90.1218 114.042 114.542 89.622 114.542 59.5002C114.542 29.3783 90.1218 4.9585 59.9999 4.9585ZM15.3749 59.5002C15.3749 50.6742 17.9921 42.0464 22.8956 34.7078C27.799 27.3693 34.7685 21.6496 42.9227 18.272C51.0768 14.8945 60.0494 14.0108 68.7058 15.7326C77.3622 17.4545 85.3136 21.7046 91.5546 27.9455C97.7955 34.1864 102.046 42.1379 103.767 50.7943C105.489 59.4507 104.606 68.4233 101.228 76.5774C97.8505 84.7316 92.1308 91.701 84.7922 96.6045C77.4537 101.508 68.8259 104.125 59.9999 104.125H23.8041L30.0863 92.8102L27.5873 90.1724C19.7304 81.8949 15.3578 70.9128 15.3749 59.5002Z" fill="#B9100B"/>
</svg>
