<svg width="135" height="41" viewBox="0 0 135 41" fill="none" xmlns="http://www.w3.org/2000/svg">
<g id="bismuth-logo" clip-path="url(#clip0_349_517)">
<g id="Layer 1">
<g id="Group">
<g id="Group_2">
<path id="Vector" d="M0 0V40.4804H37.2879V0H0ZM6.13507 6.09616H3.96931L2.88568 4.22076L3.96931 2.34387H6.13507L7.2187 4.22076L6.13507 6.09616ZM24.7304 28.4018C24.1915 30.5885 22.7382 31.9775 20.6608 32.7842C19.2164 33.3455 17.7092 33.4952 16.1886 33.5146C13.6726 33.5476 11.1566 33.5236 8.63909 33.5236H7.78745V10.5519H9.73769C11.8795 10.5519 14.0258 10.4875 16.1646 10.5714C17.823 10.6372 19.4873 10.7779 21.0454 11.4844C22.8909 12.321 23.9805 13.692 24.0254 15.7276C24.0703 17.8574 23.0286 19.4035 21.1607 20.4003C20.6533 20.6713 20.119 20.8928 19.435 21.2131C20.9167 21.4226 22.174 21.8432 23.1962 22.7667C24.907 24.3128 25.2557 26.2645 24.7304 28.4018ZM33.2722 33.4638H28.4288V17.1495H33.2722V33.4638ZM30.8774 14.4284C29.3178 14.4718 27.9169 13.1921 27.9289 11.7313C27.9393 10.3783 29.2146 9.26023 30.8071 9.20934C32.3861 9.15995 33.7481 10.3588 33.7586 11.8092C33.7691 13.1996 32.4669 14.3835 30.8774 14.4284Z" fill="#B9100B"/>
<path id="Vector_2" d="M77.2699 33.4802V32.1257C77.2699 29.466 77.2894 26.8063 77.2564 24.1466C77.249 23.497 77.1277 22.8325 76.9541 22.2054C76.4752 20.4782 74.2301 20.1339 73.0327 21.2714C72.2379 22.0273 71.9071 22.9897 71.8982 24.0448C71.8727 26.9036 71.8892 29.7623 71.8892 32.6211V33.4772H66.6566V32.66C66.6566 29.5782 66.6671 26.495 66.6492 23.4132C66.6447 22.5421 66.4202 21.7025 65.7032 21.1397C64.2963 20.0351 62.1859 20.6218 61.5872 22.7023C61.4615 23.1408 61.4316 23.6198 61.4301 24.0808C61.4166 26.9395 61.4226 29.7983 61.4226 32.657V33.4907H56.2424V17.1614H61.3717V19.3721C62.852 17.6778 64.4505 16.651 66.6462 16.6435C68.8658 16.6376 70.4643 17.4937 71.4626 19.5457C72.4041 18.3259 73.4114 17.2946 74.8692 16.907C76.3195 16.5208 77.7983 16.4669 79.2231 16.9863C81.0895 17.6673 81.8693 19.2104 82.1926 21.0334C82.3124 21.707 82.3438 22.4014 82.3468 23.0869C82.3618 26.269 82.3543 29.451 82.3543 32.633V33.4817H77.2699V33.4802Z" fill="#B9100B"/>
<path id="Vector_3" d="M134.919 33.4907H129.901V32.6615C129.901 29.903 129.947 27.1431 129.875 24.3876C129.851 23.4866 129.646 22.5436 129.303 21.7084C128.744 20.3449 126.62 20.3374 125.63 21.1577C124.792 21.8521 124.345 22.7127 124.358 23.8443C124.393 26.7764 124.37 29.7084 124.37 32.6405V33.4817H119.195V9.26019H124.34V19.0233C125.17 18.3962 125.925 17.6673 126.817 17.1853C128.548 16.2514 132.072 16.3846 133.551 18.2675C134.437 19.3945 134.925 20.6757 134.957 22.0332C135.04 25.784 134.982 29.5363 134.978 33.2886C134.978 33.335 134.954 33.3799 134.922 33.4907H134.919Z" fill="#B9100B"/>
<path id="Vector_4" d="M97.0071 17.1524H102.056V33.4697H97.0236V31.4012C96.2079 32.0583 95.4685 32.8965 94.542 33.35C92.282 34.4591 89.998 34.3184 87.9939 32.7303C87.0943 32.0179 86.5555 30.9313 86.4088 29.7623C86.2442 28.4497 86.1275 27.1221 86.108 25.8005C86.0646 22.9448 86.0945 20.0875 86.0945 17.1719H91.3271V17.9502C91.3271 21.0319 91.3001 24.1152 91.3406 27.1955C91.3555 28.312 91.6908 29.3343 92.8762 29.8072C94.8085 30.5766 96.7796 29.3657 96.8455 27.3002C96.9443 24.1796 96.9578 21.0559 97.0071 17.9337C97.0116 17.6898 97.0071 17.4458 97.0071 17.1509V17.1524Z" fill="#B9100B"/>
<path id="Vector_5" d="M52.3001 21.1068C50.9036 20.7596 49.6075 20.327 48.2769 20.1549C47.6064 20.0681 46.8356 20.3719 46.1875 20.6683C45.9255 20.788 45.6516 21.472 45.7699 21.6995C46.0183 22.1785 46.4524 22.6724 46.9343 22.8969C48.1871 23.4821 49.5431 23.8458 50.7899 24.44C52.8464 25.4204 53.5154 27.1341 53.3328 29.0784C53.1098 31.4342 51.5921 32.8486 49.4683 33.4817C46.7577 34.2885 43.9888 34.1942 41.2513 33.4009C40.7798 33.2647 40.6182 33.0836 40.6316 32.6032C40.6631 31.4387 40.6421 30.2743 40.6421 29.035C41.4369 29.3852 42.1508 29.7474 42.8992 30.0198C44.1834 30.4883 45.5244 30.5452 46.8685 30.379C47.7471 30.2698 48.2859 29.7714 48.3188 29.0784C48.3577 28.2701 47.7366 27.9663 47.1334 27.7134C45.7429 27.1311 44.3061 26.6507 42.9456 26.0086C41.4129 25.2842 40.7424 23.9865 40.6227 22.2862C40.4101 19.2614 42.528 17.5611 44.9048 16.9774C47.2247 16.4071 49.5461 16.5792 51.8421 17.1435C52.0292 17.1899 52.2776 17.4862 52.2836 17.6748C52.324 18.8617 52.3046 20.0501 52.3046 21.1083L52.3001 21.1068Z" fill="#B9100B"/>
<path id="Vector_6" d="M112.679 12.2178V17.0821H116.245V20.8135H112.765C112.738 21.0455 112.697 21.2325 112.697 21.4196C112.697 23.5555 112.691 25.6913 112.708 27.8271C112.721 29.6142 113.766 30.3775 115.499 29.8941C115.731 29.8297 115.954 29.7384 116.242 29.6381V33.5012C114.16 34.1163 112.06 34.3394 109.973 33.4129C108.584 32.7962 107.799 31.6438 107.65 30.1964C107.477 28.5066 107.507 26.7944 107.477 25.0911C107.453 23.7051 107.472 22.3192 107.472 20.8524H104.817V17.142H107.472C107.472 16.0539 107.447 15.0436 107.492 14.0363C107.502 13.8178 107.725 13.478 107.92 13.4196C109.337 12.9871 110.771 12.6084 112.202 12.2238C112.335 12.1878 112.486 12.2193 112.679 12.2193V12.2178Z" fill="#B9100B"/>
<path id="Vector_7" d="M12.8794 23.6093C14.3836 23.6842 15.8459 23.6662 17.2798 23.8533C18.5849 24.0224 19.4964 25.1464 19.5548 26.3513C19.6281 27.872 18.9785 29.0289 17.5387 29.3253C16.039 29.6336 14.4779 29.6396 12.8794 29.7833V23.6093Z" fill="#B9100B"/>
<path id="Vector_8" d="M12.8569 19.869V14.3655C14.1396 14.4389 15.3984 14.4269 16.6302 14.6065C17.8874 14.7891 18.6358 15.7695 18.6612 16.9354C18.6912 18.3962 17.6644 19.4529 16.6077 19.622C15.3999 19.8151 14.1576 19.7942 12.8584 19.8705L12.8569 19.869Z" fill="#B9100B"/>
</g>
</g>
</g>
</g>
<defs>
<clipPath id="clip0_349_517">
<rect width="135" height="40.4804" fill="white"/>
</clipPath>
</defs>
</svg>
