<svg width="201" height="60" viewBox="0 0 201 60" fill="none" xmlns="http://www.w3.org/2000/svg">
<g id="bismuth-logo" clip-path="url(#clip0_349_597)">
<g id="Layer 1">
<g id="Group">
<g id="Group_2">
<path id="Vector" d="M0.295898 0V60H55.564V0H0.295898ZM9.3893 9.03572H6.17921L4.57306 6.25601L6.17921 3.47408H9.3893L10.9954 6.25601L9.3893 9.03572ZM36.9512 42.0972C36.1526 45.3383 33.9985 47.397 30.9193 48.5928C28.7785 49.4247 26.5445 49.6465 24.2906 49.6754C20.5614 49.7242 16.8322 49.6887 13.1008 49.6887H11.8385V15.64H14.7291C17.9037 15.64 21.0849 15.5446 24.2551 15.6689C26.7131 15.7665 29.18 15.975 31.4894 17.0221C34.2248 18.2622 35.8398 20.2943 35.9063 23.3114C35.9729 26.4682 34.4289 28.7599 31.6602 30.2374C30.9082 30.6389 30.1162 30.9672 29.1024 31.442C31.2986 31.7526 33.1621 32.376 34.6773 33.7447C37.213 36.0364 37.7299 38.9292 36.9512 42.0972ZM49.6119 49.5999H42.433V25.4189H49.6119V49.5999ZM46.0624 21.3858C43.7508 21.4501 41.6743 19.5534 41.692 17.3882C41.7076 15.3827 43.5977 13.7255 45.9581 13.6501C48.2986 13.5769 50.3173 15.3538 50.3329 17.5035C50.3484 19.5644 48.4184 21.3192 46.0624 21.3858Z" fill="#7C7C7C"/>
<path id="Vector_2" d="M114.825 49.6242V47.6165C114.825 43.6743 114.854 39.7321 114.805 35.79C114.794 34.8272 114.614 33.8422 114.357 32.9127C113.647 30.3526 110.319 29.8423 108.545 31.5283C107.367 32.6487 106.876 34.0751 106.863 35.6391C106.825 39.8763 106.85 44.1136 106.85 48.3508V49.6197H99.0941V48.4085C99.0941 43.8407 99.1097 39.2707 99.083 34.7029C99.0764 33.4118 98.7436 32.1673 97.681 31.3331C95.5956 29.6959 92.4676 30.5655 91.5803 33.6492C91.3939 34.2992 91.3495 35.0091 91.3473 35.6924C91.3274 39.9296 91.3362 44.1668 91.3362 48.404V49.6397H83.6582V25.4365H91.2608V28.7131C93.4549 26.2019 95.8241 24.68 99.0786 24.6689C102.369 24.66 104.738 25.929 106.218 28.9705C107.613 27.1624 109.106 25.6339 111.267 25.0594C113.416 24.487 115.608 24.4071 117.72 25.1769C120.487 26.1863 121.642 28.4735 122.122 31.1756C122.299 32.1739 122.346 33.2033 122.35 34.2193C122.372 38.9357 122.361 43.6521 122.361 48.3685V49.6264H114.825V49.6242Z" fill="#7C7C7C"/>
<path id="Vector_3" d="M200.273 49.64H192.835V48.4109C192.835 44.3224 192.903 40.2315 192.797 36.1474C192.761 34.8119 192.457 33.4143 191.949 32.1764C191.12 30.1554 187.972 30.1443 186.505 31.36C185.263 32.3893 184.6 33.665 184.62 35.3421C184.671 39.688 184.637 44.034 184.637 48.3799V49.6266H176.966V13.7256H184.593V28.1965C185.822 27.267 186.942 26.1866 188.265 25.4722C190.829 24.0879 196.054 24.2854 198.245 27.0762C199.559 28.7467 200.282 30.6457 200.328 32.6578C200.453 38.2172 200.366 43.7788 200.36 49.3405C200.36 49.4092 200.324 49.4758 200.277 49.64H200.273Z" fill="#7C7C7C"/>
<path id="Vector_4" d="M144.08 25.4231H151.563V49.6086H144.104V46.5427C142.895 47.5166 141.799 48.7589 140.426 49.4311C137.076 51.075 133.691 50.8664 130.72 48.5127C129.387 47.4567 128.589 45.8461 128.371 44.1135C128.127 42.1679 127.954 40.2002 127.925 38.2413C127.861 34.0085 127.905 29.7735 127.905 25.452H135.661V26.6055C135.661 31.1733 135.621 35.7433 135.681 40.3089C135.703 41.9638 136.2 43.479 137.957 44.18C140.821 45.3203 143.743 43.5256 143.84 40.4642C143.987 35.8387 144.007 31.2088 144.08 26.5811C144.087 26.2195 144.08 25.8579 144.08 25.4209V25.4231Z" fill="#7C7C7C"/>
<path id="Vector_5" d="M77.815 31.2845C75.7452 30.7699 73.824 30.1287 71.8518 29.8736C70.858 29.7449 69.7155 30.1953 68.7549 30.6345C68.3667 30.812 67.9607 31.8258 68.1359 32.163C68.5042 32.8729 69.1475 33.605 69.8619 33.9378C71.7187 34.8052 73.7286 35.3443 75.5766 36.225C78.6247 37.6781 79.6164 40.2182 79.3457 43.1C79.0152 46.5918 76.7657 48.6882 73.6177 49.6266C69.6001 50.8224 65.496 50.6826 61.4385 49.5068C60.7396 49.3049 60.5001 49.0365 60.52 48.3244C60.5666 46.5984 60.5356 44.8725 60.5356 43.0356C61.7135 43.5547 62.7717 44.0916 63.881 44.4954C65.7844 45.1897 67.7721 45.274 69.7643 45.0278C71.0665 44.8658 71.8651 44.1271 71.9139 43.1C71.9716 41.902 71.051 41.4517 70.1569 41.0767C68.096 40.2138 65.9663 39.5016 63.9497 38.5499C61.678 37.4762 60.6842 35.5528 60.5067 33.0327C60.1917 28.5492 63.3308 26.029 66.8537 25.1639C70.2923 24.3186 73.7331 24.5737 77.1362 25.4101C77.4135 25.4789 77.7817 25.9181 77.7906 26.1976C77.8505 27.9569 77.8217 29.7183 77.8217 31.2868L77.815 31.2845Z" fill="#7C7C7C"/>
<path id="Vector_6" d="M167.309 18.1089V25.3189H172.594V30.8494H167.436C167.396 31.1933 167.336 31.4706 167.336 31.7479C167.336 34.9136 167.327 38.0794 167.351 41.2451C167.371 43.8939 168.92 45.0253 171.489 44.3087C171.833 44.2133 172.163 44.078 172.589 43.9294V49.6552C169.503 50.567 166.391 50.8975 163.298 49.5243C161.24 48.6103 160.075 46.9021 159.855 44.7569C159.598 42.2522 159.642 39.7143 159.598 37.1898C159.562 35.1355 159.591 33.0812 159.591 30.9071H155.656V25.4076H159.591C159.591 23.7948 159.554 22.2974 159.62 20.8043C159.636 20.4804 159.966 19.9769 160.255 19.8903C162.355 19.2492 164.481 18.6879 166.602 18.1178C166.799 18.0646 167.023 18.1112 167.309 18.1112V18.1089Z" fill="#7C7C7C"/>
<path id="Vector_7" d="M19.3857 34.9937C21.6153 35.1046 23.7827 35.078 25.908 35.3553C27.8424 35.6059 29.1935 37.272 29.28 39.0578C29.3887 41.3118 28.4259 43.0266 26.2918 43.4659C24.0689 43.9229 21.755 43.9318 19.3857 44.1447V34.9937Z" fill="#7C7C7C"/>
<path id="Vector_8" d="M19.3523 29.4497V21.2925C21.2535 21.4012 23.1192 21.3834 24.945 21.6496C26.8085 21.9203 27.9177 23.3734 27.9554 25.1015C27.9998 27.2667 26.4779 28.833 24.9117 29.0837C23.1214 29.3698 21.2801 29.3388 19.3545 29.4519L19.3523 29.4497Z" fill="#7C7C7C"/>
</g>
</g>
</g>
</g>
<defs>
<clipPath id="clip0_349_597">
<rect width="200.097" height="60" fill="white" transform="translate(0.295898)"/>
</clipPath>
</defs>
</svg>
