<svg width="23" height="23" viewBox="0 0 23 23" fill="none" xmlns="http://www.w3.org/2000/svg">
<g id="entypo-social:facebook">
<path id="Vector" d="M19.3541 1.70459H4.15644C2.96234 1.70459 1.98535 2.68158 1.98535 3.87568V19.0733C1.98535 20.2685 2.96234 21.2444 4.15644 21.2444H11.7552V13.6456H9.58416V10.9589H11.7552V8.73349C11.7552 6.38437 13.0709 4.73434 15.8434 4.73434L17.8006 4.73651V7.56436H16.5012C15.4222 7.56436 15.0119 8.37417 15.0119 9.12537V10.9599H17.7996L17.183 13.6456H15.0119V21.2444H19.3541C20.5482 21.2444 21.5251 20.2685 21.5251 19.0733V3.87568C21.5251 2.68158 20.5482 1.70459 19.3541 1.70459Z" fill="#7C7C7C"/>
</g>
</svg>
