<svg width="21" height="20" viewBox="0 0 21 20" fill="none" xmlns="http://www.w3.org/2000/svg">
<path d="M10.2339 0.233887C8.92067 0.233887 7.62031 0.492544 6.40705 0.995091C5.1938 1.49764 4.0914 2.23423 3.16282 3.16282C1.28746 5.03818 0.233887 7.58172 0.233887 10.2339C0.233887 14.6539 3.10389 18.4039 7.07389 19.7339C7.57389 19.8139 7.73389 19.5039 7.73389 19.2339V17.5439C4.96389 18.1439 4.37389 16.2039 4.37389 16.2039C3.91389 15.0439 3.26389 14.7339 3.26389 14.7339C2.35389 14.1139 3.33389 14.1339 3.33389 14.1339C4.33389 14.2039 4.86389 15.1639 4.86389 15.1639C5.73389 16.6839 7.20389 16.2339 7.77389 15.9939C7.86389 15.3439 8.12389 14.9039 8.40389 14.6539C6.18389 14.4039 3.85389 13.5439 3.85389 9.73389C3.85389 8.62389 4.23389 7.73389 4.88389 7.02389C4.78389 6.77389 4.43389 5.73389 4.98389 4.38389C4.98389 4.38389 5.82389 4.11389 7.73389 5.40389C8.52389 5.18389 9.38389 5.07389 10.2339 5.07389C11.0839 5.07389 11.9439 5.18389 12.7339 5.40389C14.6439 4.11389 15.4839 4.38389 15.4839 4.38389C16.0339 5.73389 15.6839 6.77389 15.5839 7.02389C16.2339 7.73389 16.6139 8.62389 16.6139 9.73389C16.6139 13.5539 14.2739 14.3939 12.0439 14.6439C12.4039 14.9539 12.7339 15.5639 12.7339 16.4939V19.2339C12.7339 19.5039 12.8939 19.8239 13.4039 19.7339C17.3739 18.3939 20.2339 14.6539 20.2339 10.2339C20.2339 8.92067 19.9752 7.62031 19.4727 6.40705C18.9701 5.1938 18.2335 4.0914 17.305 3.16282C16.3764 2.23423 15.274 1.49764 14.0607 0.995091C12.8475 0.492544 11.5471 0.233887 10.2339 0.233887Z" fill="#7C7C7C"/>
</svg>
