<svg width="22" height="23" viewBox="0 0 22 23" fill="none" xmlns="http://www.w3.org/2000/svg">
<g id="grommet-icons:instagram" clip-path="url(#clip0_349_633)">
<path id="Vector" d="M15.9624 0.688308C17.0642 0.738967 17.8259 0.900894 18.5297 1.17409C19.197 1.42359 19.8011 1.81709 20.2991 2.32657C20.8086 2.82456 21.2021 3.42869 21.4516 4.09601C21.7248 4.80071 21.8867 5.5615 21.9374 6.66332C21.9998 8.0293 22.007 8.51056 22.007 11.4741C22.007 14.4376 21.9998 14.9189 21.9374 16.2849C21.8867 17.3867 21.7248 18.1484 21.4516 18.8531C21.202 19.5201 20.8085 20.1239 20.2991 20.6216C19.8011 21.1311 19.197 21.5246 18.5297 21.7741C17.825 22.0473 17.0642 22.2092 15.9624 22.2599C14.5964 22.3223 14.116 22.3295 11.1516 22.3295C8.18714 22.3295 7.70588 22.3223 6.34081 22.2599C5.23899 22.2092 4.4773 22.0473 3.7726 21.7741C3.10559 21.5245 2.50177 21.131 2.00407 20.6216C1.49458 20.1236 1.10108 19.5195 0.851579 18.8522C0.578384 18.1475 0.416457 17.3867 0.365798 16.2849C0.30338 14.9207 0.296143 14.4394 0.296143 11.4741C0.296143 8.50965 0.30338 8.02749 0.365798 6.66332C0.416457 5.5615 0.578384 4.79981 0.851579 4.09601C1.10108 3.42869 1.49458 2.82456 2.00407 2.32657C2.50179 1.8172 3.1056 1.42371 3.7726 1.17409C4.4782 0.900894 5.23899 0.738967 6.34081 0.688308C7.70498 0.625889 8.18624 0.618652 11.1516 0.618652C14.116 0.618652 14.5982 0.625889 15.9624 0.688308ZM11.1516 3.03127C8.22061 3.03127 7.77192 3.03761 6.45027 3.09822C5.61169 3.13621 5.10872 3.24295 4.64646 3.42297C4.29165 3.55163 3.97104 3.7599 3.70927 4.03178C3.43681 4.29308 3.22845 4.61382 3.10046 4.96897C2.92135 5.43033 2.8137 5.9342 2.77571 6.77278C2.7151 8.09443 2.70876 8.54312 2.70876 11.4741C2.70876 14.4051 2.7151 14.8538 2.77571 16.1754C2.8137 17.014 2.92044 17.517 3.10046 17.9783C3.25425 18.3727 3.41708 18.6233 3.70927 18.9164C4.00237 19.2095 4.25295 19.3723 4.64646 19.5252C5.10782 19.7043 5.61169 19.812 6.45027 19.85C7.77283 19.9106 8.22152 19.9169 11.1516 19.9169C14.0826 19.9169 14.5303 19.9106 15.8529 19.85C16.6915 19.812 17.1944 19.7052 17.6567 19.5252C18.0115 19.3966 18.3321 19.1883 18.5939 18.9164C18.887 18.6233 19.0498 18.3727 19.2027 17.9792C19.3818 17.5179 19.4895 17.014 19.5275 16.1754C19.5881 14.8528 19.5944 14.4042 19.5944 11.4741C19.5944 8.54403 19.5881 8.09534 19.5275 6.77278C19.4895 5.9342 19.3827 5.43123 19.2027 4.96987C19.0748 4.61443 18.8664 4.29338 18.5939 4.03178C18.3323 3.75923 18.0113 3.55087 17.6558 3.42297C17.1944 3.24386 16.6906 3.13621 15.852 3.09822C14.5303 3.03761 14.0816 3.03127 11.1507 3.03127H11.1516ZM11.1516 17.1026C9.6588 17.1026 8.22716 16.5096 7.1716 15.4541C6.11604 14.3985 5.52304 12.9669 5.52304 11.4741C5.52304 9.98131 6.11604 8.54967 7.1716 7.49411C8.22716 6.43855 9.6588 5.84555 11.1516 5.84555C12.6444 5.84555 14.076 6.43855 15.1316 7.49411C16.1871 8.54967 16.7801 9.98131 16.7801 11.4741C16.7801 12.9669 16.1871 14.3985 15.1316 15.4541C14.076 16.5096 12.6444 17.1026 11.1516 17.1026ZM11.1516 14.6909C12.0047 14.6909 12.823 14.352 13.4262 13.7487C14.0295 13.1455 14.3684 12.3272 14.3684 11.4741C14.3684 10.6209 14.0295 9.80272 13.4262 9.19945C12.823 8.59618 12.0047 8.25726 11.1516 8.25726C10.2984 8.25726 9.48021 8.59618 8.87694 9.19945C8.27367 9.80272 7.93475 10.6209 7.93475 11.4741C7.93475 12.3272 8.27367 13.1455 8.87694 13.7487C9.48021 14.352 10.2984 14.6909 11.1516 14.6909ZM16.7801 7.0514C16.4602 7.0514 16.1534 6.92431 15.9271 6.69808C15.7009 6.47186 15.5738 6.16503 15.5738 5.84509C15.5738 5.52516 15.7009 5.21833 15.9271 4.9921C16.1534 4.76588 16.4602 4.63878 16.7801 4.63878C17.1001 4.63878 17.4069 4.76588 17.6331 4.9921C17.8593 5.21833 17.9864 5.52516 17.9864 5.84509C17.9864 6.16503 17.8593 6.47186 17.6331 6.69808C17.4069 6.92431 17.1001 7.0514 16.7801 7.0514Z" fill="#7C7C7C"/>
</g>
<defs>
<clipPath id="clip0_349_633">
<rect width="21.7109" height="21.7109" fill="white" transform="translate(0.295898 0.618652)"/>
</clipPath>
</defs>
</svg>
