<svg width="116" height="115" viewBox="0 0 116 115" fill="none" xmlns="http://www.w3.org/2000/svg">
<path d="M91.5417 14.3752C83.6162 14.3752 77.1667 20.8247 77.1667 28.7502C77.1667 31.1556 77.8183 33.3885 78.8629 35.3866L73.5154 41.6254C70.3522 39.4767 66.6156 38.3297 62.7917 38.3335C59.2506 38.3335 55.9635 39.3685 53.1125 41.0456L46.3371 34.2702C47.683 31.8477 48.3981 29.1256 48.4167 26.3543C48.4167 17.1064 40.8937 9.5835 31.6458 9.5835C22.3979 9.5835 14.875 17.1064 14.875 26.3543C14.875 35.6022 22.3979 43.1252 31.6458 43.1252C34.5256 43.1252 37.1946 42.3298 39.5617 41.0456L46.3371 47.821C44.582 50.746 43.6453 54.089 43.625 57.5002C43.625 62.2775 45.4458 66.5995 48.3448 69.9633L40.2373 78.0708L40.3571 78.1906C38.3981 77.2012 36.2363 76.6796 34.0417 76.6668C26.1162 76.6668 19.6667 83.1164 19.6667 91.0418C19.6667 98.9673 26.1162 105.417 34.0417 105.417C41.9671 105.417 48.4167 98.9673 48.4167 91.0418C48.4167 88.761 47.8369 86.6383 46.8929 84.7264L47.0127 84.8462L56.3756 75.4833C58.3929 76.202 60.53 76.6668 62.7917 76.6668C73.3621 76.6668 81.9583 68.0706 81.9583 57.5002C81.9377 54.5236 81.2171 51.5936 79.8548 48.947L85.8587 41.9416C87.6029 42.6987 89.5196 43.1252 91.5417 43.1252C99.4671 43.1252 105.917 36.6756 105.917 28.7502C105.917 20.8247 99.4671 14.3752 91.5417 14.3752ZM34.0417 95.8335C32.7708 95.8335 31.5521 95.3287 30.6534 94.4301C29.7548 93.5314 29.25 92.3127 29.25 91.0418C29.25 89.771 29.7548 88.5522 30.6534 87.6536C31.5521 86.755 32.7708 86.2502 34.0417 86.2502C35.3125 86.2502 36.5313 86.755 37.4299 87.6536C38.3285 88.5522 38.8333 89.771 38.8333 91.0418C38.8333 92.3127 38.3285 93.5314 37.4299 94.4301C36.5313 95.3287 35.3125 95.8335 34.0417 95.8335ZM24.4583 26.3543C24.4583 22.3916 27.6831 19.1668 31.6458 19.1668C35.6085 19.1668 38.8333 22.3916 38.8333 26.3543C38.8333 30.317 35.6085 33.5418 31.6458 33.5418C27.6831 33.5418 24.4583 30.317 24.4583 26.3543ZM62.7917 67.0835C57.5065 67.0835 53.2083 62.7854 53.2083 57.5002C53.2083 52.215 57.5065 47.9168 62.7917 47.9168C68.0769 47.9168 72.375 52.215 72.375 57.5002C72.375 62.7854 68.0769 67.0835 62.7917 67.0835ZM91.5417 33.5418C90.2708 33.5418 89.0521 33.037 88.1534 32.1384C87.2548 31.2398 86.75 30.021 86.75 28.7502C86.75 27.4793 87.2548 26.2606 88.1534 25.3619C89.0521 24.4633 90.2708 23.9585 91.5417 23.9585C92.8125 23.9585 94.0313 24.4633 94.9299 25.3619C95.8285 26.2606 96.3333 27.4793 96.3333 28.7502C96.3333 30.021 95.8285 31.2398 94.9299 32.1384C94.0313 33.037 92.8125 33.5418 91.5417 33.5418Z" fill="#B9100B"/>
</svg>
