<svg width="120" height="119" viewBox="0 0 120 119" fill="none" xmlns="http://www.w3.org/2000/svg">
<path d="M111.97 92.9027L93.1238 74.057L78.6282 68.0682C83.4547 61.2044 86.0406 53.0159 86.0313 44.625C86.0313 22.0692 67.6809 3.71875 45.125 3.71875C22.5692 3.71875 4.21875 22.0692 4.21875 44.625C4.21875 67.1808 22.5692 85.5312 45.125 85.5312C53.589 85.5409 61.8452 82.9104 68.7435 78.0061L74.7167 92.4628L93.5617 111.309C94.7703 112.518 96.2052 113.477 97.7843 114.131C99.3634 114.785 101.056 115.122 102.765 115.122C104.474 115.122 106.167 114.785 107.746 114.131C109.325 113.477 110.76 112.519 111.969 111.31C113.178 110.101 114.136 108.667 114.791 107.087C115.445 105.508 115.781 103.816 115.782 102.106C115.782 100.397 115.445 98.7047 114.791 97.1255C114.137 95.5463 113.178 94.1114 111.97 92.9027ZM11.6563 44.625C11.6563 26.1707 26.6707 11.1562 45.125 11.1562C63.5793 11.1562 78.5938 26.1707 78.5938 44.625C78.5938 63.0793 63.5793 78.0938 45.125 78.0938C26.6707 78.0938 11.6563 63.0793 11.6563 44.625ZM106.71 106.05C105.663 107.095 104.245 107.682 102.766 107.682C101.287 107.682 99.8681 107.095 98.8212 106.05L81.0242 88.2534L75.4707 74.8113L88.9133 80.3647L106.711 98.1618C107.755 99.2088 108.341 100.627 108.341 102.106C108.341 103.585 107.755 105.004 106.71 106.05Z" fill="#B9100B"/>
</svg>
