<svg width="27" height="28" viewBox="0 0 27 28" fill="none" xmlns="http://www.w3.org/2000/svg">
<g id="ri:twitter-fill">
<path id="Vector" d="M24.6159 7.0876C23.7817 7.45662 22.8971 7.69904 21.9914 7.80685C22.9457 7.23531 23.6597 6.33636 24.0005 5.27745C23.1041 5.81088 22.1215 6.18471 21.0983 6.38693C20.4103 5.65083 19.4984 5.16264 18.5044 4.99826C17.5103 4.83389 16.4898 5.00253 15.6015 5.47798C14.7132 5.95343 14.0068 6.70904 13.5923 7.62735C13.1777 8.54566 13.0781 9.57521 13.309 10.5559C11.4912 10.465 9.71274 9.99271 8.08927 9.16977C6.46579 8.34683 5.03355 7.19162 3.88556 5.77918C3.47925 6.47706 3.26573 7.27039 3.26687 8.07793C3.26687 9.6629 4.07466 11.0631 5.30001 11.8829C4.57421 11.8601 3.8644 11.6641 3.22971 11.3113V11.367C3.22967 12.4228 3.59483 13.4461 4.26325 14.2633C4.93167 15.0806 5.86219 15.6414 6.897 15.8508C6.22327 16.0336 5.51676 16.0605 4.83107 15.9295C5.12284 16.8383 5.69156 17.6331 6.45758 18.2025C7.22359 18.7719 8.14853 19.0875 9.10284 19.1049C8.15443 19.8498 7.06849 20.4004 5.90711 20.7253C4.74574 21.0502 3.53171 21.1429 2.33447 20.9982C4.42414 22.342 6.85667 23.0554 9.34113 23.0532C17.7513 23.0532 22.3488 16.0869 22.3488 10.0455C22.3488 9.84872 22.3444 9.64978 22.3357 9.45412C23.2303 8.80741 24.0024 8.00531 24.6159 7.0876Z" fill="#7C7C7C"/>
</g>
</svg>
